<?xml version="1.0" standalone="no"?>
<!DOCTYPE svg PUBLIC "-//W3C//DTD SVG 20010904//EN"
 "http://www.w3.org/TR/2001/REC-SVG-20010904/DTD/svg10.dtd">
<svg version="1.0" xmlns="http://www.w3.org/2000/svg"
 width="2000.000000pt" height="1500.000000pt" viewBox="0 0 2000.000000 1500.000000"
 preserveAspectRatio="xMidYMid meet">

<g transform="translate(0.000000,1500.000000) scale(0.100000,-0.100000)"
fill="#FFF" stroke="none">
<path d="M8480 7905 l0 -3925 105 0 105 0 0 3925 0 3925 -105 0 -105 0 0
-3925z"/>
<path d="M10630 10145 l0 -1625 930 0 930 0 0 185 0 185 -730 0 -730 0 0 605
0 605 685 0 685 0 -2 183 -3 182 -682 3 -683 2 0 465 0 465 730 0 730 0 0 185
0 185 -930 0 -930 0 0 -1625z"/>
<path d="M12980 11585 l0 -185 805 0 c443 0 805 -2 805 -4 0 -2 -382 -648
-850 -1435 -467 -788 -850 -1434 -850 -1437 0 -2 511 -4 1135 -4 l1135 0 0
185 0 185 -805 0 c-443 0 -805 3 -805 6 0 3 381 647 846 1432 466 785 849
1430 851 1435 2 4 -507 7 -1131 7 l-1136 0 0 -185z"/>
<path d="M4070 10475 l0 -555 200 0 200 0 0 555 0 555 -200 0 -200 0 0 -555z"/>
<path d="M5040 10215 l-355 -355 140 -140 140 -140 357 357 358 358 -137 137
c-76 76 -140 138 -143 138 -3 0 -165 -160 -360 -355z"/>
<path d="M2995 10400 l-140 -140 353 -353 352 -352 142 143 143 142 -350 350
c-192 192 -352 350 -355 350 -3 0 -68 -63 -145 -140z"/>
<path d="M6285 9917 c-80 -27 -127 -59 -237 -165 -878 -838 -2031 -1936 -2061
-1961 -20 -18 -37 -29 -37 -24 0 4 -29 173 -64 374 -71 412 -82 445 -178 535
-248 232 -664 107 -729 -219 -10 -49 -9 -78 7 -180 28 -178 26 -474 -4 -614
-34 -159 -76 -274 -172 -473 -127 -265 -162 -402 -163 -635 0 -218 45 -403
145 -598 96 -187 163 -263 581 -658 210 -198 419 -389 465 -423 263 -199 560
-296 904 -296 360 0 696 119 948 336 160 137 892 840 918 881 92 144 78 333
-34 470 -120 146 -338 188 -515 98 -25 -13 -2 15 82 101 64 66 126 137 137
159 99 198 52 418 -118 546 -123 92 -315 104 -450 28 -23 -13 0 14 67 78 83
80 108 112 135 168 30 63 33 79 33 160 -1 79 -4 98 -30 150 -95 196 -339 280
-541 186 -65 -30 -67 -30 -44 -8 14 14 327 312 695 663 369 351 683 654 699
673 105 130 115 331 24 474 -39 62 -106 120 -177 154 -46 22 -72 27 -151 30
-60 2 -110 -2 -135 -10z"/>
<path d="M10637 7463 c-4 -3 -7 -735 -7 -1625 l0 -1618 518 0 c559 0 623 5
797 55 275 80 469 234 584 462 88 176 114 459 62 666 -69 266 -290 473 -600
559 -44 13 -81 26 -81 29 0 4 12 10 28 13 15 4 70 28 122 54 79 38 110 61 180
132 139 138 190 265 190 471 0 294 -105 506 -321 645 -138 90 -308 139 -534
154 -151 11 -928 13 -938 3z m1018 -367 c166 -47 273 -127 335 -251 62 -123
63 -296 3 -423 -52 -110 -176 -204 -328 -247 -48 -14 -117 -18 -347 -22 l-288
-5 0 487 0 487 283 -5 c224 -3 294 -8 342 -21z m100 -1314 c241 -65 401 -215
450 -423 19 -84 19 -258 0 -334 -48 -184 -175 -327 -356 -399 -124 -50 -183
-57 -511 -63 l-308 -6 0 628 0 627 323 -4 c289 -5 330 -7 402 -26z"/>
<path d="M13200 5631 c0 -463 4 -747 11 -798 57 -408 335 -663 726 -663 247 0
453 110 590 315 l38 58 3 -161 2 -162 185 0 185 0 0 1065 0 1065 -185 0 -185
0 0 -667 c0 -406 -4 -693 -10 -731 -32 -194 -154 -340 -336 -403 -59 -21 -88
-24 -199 -24 -111 1 -138 4 -187 24 -83 32 -160 106 -203 195 -63 126 -64 151
-65 919 l0 687 -185 0 -185 0 0 -719z"/>
<path d="M15293 6338 c3 -7 186 -417 406 -912 221 -494 401 -903 401 -908 0
-9 -548 -1255 -572 -1301 -8 -16 3 -17 202 -15 l212 3 659 1495 c363 822 675
1530 694 1573 l33 77 -208 0 -208 0 -281 -702 c-154 -387 -285 -716 -291 -733
-10 -27 -13 -28 -21 -12 -6 10 -140 338 -299 730 l-289 712 -221 3 c-177 2
-221 0 -217 -10z"/>
</g>
</svg>
